<?xml version="1.0" standalone="no"?>
<!DOCTYPE svg PUBLIC "-//W3C//DTD SVG 20010904//EN"
 "http://www.w3.org/TR/2001/REC-SVG-20010904/DTD/svg10.dtd">
<svg version="1.0" xmlns="http://www.w3.org/2000/svg"
 width="16.000000pt" height="16.000000pt" viewBox="0 0 16.000000 16.000000"
 preserveAspectRatio="xMidYMid meet">
<metadata>
Created by potrace 1.11, written by Peter Selinger 2001-2013
</metadata>
<g transform="translate(0.000000,16.000000) scale(0.006154,-0.006154)"
fill="#000000" stroke="none">
<path d="M1421 2065 c-41 -35 -57 -86 -42 -137 10 -32 20 -43 54 -59 23 -10
49 -19 58 -19 9 0 24 -9 35 -21 19 -21 18 -21 -5 -40 -25 -20 -58 -18 -97 8
-20 13 -23 11 -43 -20 -12 -19 -21 -37 -21 -41 0 -15 88 -46 133 -46 90 0 147
50 147 130 0 61 -19 84 -95 113 -67 26 -81 50 -42 68 20 9 32 8 55 -3 29 -15
30 -15 46 19 9 18 16 38 16 42 0 15 -60 31 -116 31 -42 0 -59 -5 -83 -25z"/>
<path d="M600 1890 l0 -190 100 0 c150 0 190 23 190 108 0 43 -31 92 -57 92
-14 0 -13 3 3 21 13 14 19 36 19 66 0 37 -5 49 -28 69 -26 22 -37 24 -128 24
l-99 0 0 -190z m134 110 c41 -15 29 -70 -16 -70 -14 0 -18 8 -18 40 0 45 -1
44 34 30z m30 -150 c49 -18 26 -70 -31 -70 -32 0 -33 1 -33 40 0 44 13 50 64
30z"/>
<path d="M1020 1890 l0 -190 110 0 110 0 0 40 0 40 -60 0 -60 0 0 35 0 35 55
0 55 0 0 40 0 40 -55 0 -55 0 0 35 0 35 60 0 60 0 0 40 0 40 -110 0 -110 0 0
-190z"/>
<path d="M1740 2040 l0 -40 40 0 40 0 0 -150 0 -150 50 0 50 0 0 150 0 150 40
0 40 0 0 40 0 40 -130 0 -130 0 0 -40z"/>
<path d="M690 1280 l0 -190 97 0 c118 0 170 20 211 83 23 34 27 52 27 107 0
55 -4 73 -27 107 -41 63 -93 83 -211 83 l-97 0 0 -190z m197 85 c12 -8 27 -32
34 -54 17 -57 -11 -111 -65 -129 -63 -20 -66 -15 -66 96 0 54 3 102 7 106 10
10 62 -1 90 -19z"/>
<path d="M1206 1343 c-26 -70 -59 -156 -72 -190 l-24 -63 53 0 c51 0 54 1 70
35 17 35 17 35 81 35 l64 0 12 -35 c11 -34 13 -35 66 -35 30 0 54 2 54 4 0 1
-31 86 -69 187 l-69 184 -58 3 -59 3 -49 -128z m138 -90 c7 -21 4 -23 -33 -23
l-40 0 15 43 c26 75 25 74 39 37 7 -19 15 -45 19 -57z"/>
<path d="M1530 1464 c0 -3 29 -46 65 -96 l65 -91 0 -94 0 -93 50 0 50 0 0 88
0 87 61 85 c91 128 90 120 21 120 l-59 0 -35 -50 -36 -51 -32 51 -32 50 -59 0
c-32 0 -59 -3 -59 -6z"/>
<path d="M550 670 l0 -190 110 0 110 0 0 40 0 39 -57 3 c-57 3 -58 3 -58 33 0
30 1 30 58 33 l57 3 0 39 0 39 -57 3 c-57 3 -58 3 -58 33 0 30 1 30 58 33 l57
3 0 39 0 40 -110 0 -110 0 0 -190z"/>
<path d="M887 818 c9 -24 45 -108 78 -188 l62 -145 42 0 43 0 79 185 78 185
-51 3 c-28 2 -54 0 -58 -5 -4 -4 -24 -52 -45 -105 -21 -54 -41 -98 -45 -98 -4
0 -25 46 -47 103 l-40 102 -57 3 -56 3 17 -43z"/>
<path d="M1370 670 l0 -190 110 0 110 0 0 40 0 39 -57 3 c-57 3 -58 3 -61 36
l-3 32 55 0 56 0 0 39 0 40 -52 3 c-52 3 -53 4 -56 36 l-3 32 60 0 61 0 0 40
0 40 -110 0 -110 0 0 -190z"/>
<path d="M1730 670 l0 -190 50 0 49 0 3 68 3 67 43 -67 42 -68 60 0 c33 0 60
3 60 6 0 3 -25 38 -55 77 -50 64 -54 72 -37 78 36 13 62 59 62 106 0 38 -5 50
-34 79 l-34 34 -106 0 -106 0 0 -190z m168 92 c6 -9 12 -19 12 -24 0 -16 -40
-48 -60 -48 -17 0 -20 7 -20 50 0 50 0 50 28 44 15 -4 33 -13 40 -22z"/>
</g>
</svg>
