<svg id="24be9a28-8f80-425a-be9b-6e76a9f8368f" data-name="Layer 1" xmlns="http://www.w3.org/2000/svg" viewBox="0 0 291.49 101.77"><title>bde-logo</title><path d="M559.33,499.22a2.55,2.55,0,0,0-2.06-1,2.38,2.38,0,0,0-2.41,2.51,2.35,2.35,0,0,0,2.45,2.46,2.7,2.7,0,0,0,2-1v2.82a6.64,6.64,0,0,1-2.07.42,5,5,0,0,1-3.39-1.33,4.42,4.42,0,0,1-1.45-3.42,4.73,4.73,0,0,1,1.33-3.31,4.9,4.9,0,0,1,3.44-1.46,5.51,5.51,0,0,1,2.15.46Z" transform="translate(-361.4 -450.05)"/><path d="M570.13,499.68v-3.49h2.35v9h-2.35v-3.71h-3.39v3.71h-2.35v-9h2.35v3.49Z" transform="translate(-361.4 -450.05)"/><path d="M579.93,503.66l-.62,1.57h-2.49l3.48-9h2.57l3.41,9h-2.51l-.59-1.57Zm1.64-4.68h0l-1,2.88h2Z" transform="translate(-361.4 -450.05)"/><path d="M592.95,503.24h2.82v2H590.6v-9h2.35Z" transform="translate(-361.4 -450.05)"/><path d="M602.49,503.24h2.82v2h-5.17v-9h2.35Z" transform="translate(-361.4 -450.05)"/><path d="M612,498.18v1.51h2.65v2H612v1.56h2.79v2h-5.14v-9h5.14v2Z" transform="translate(-361.4 -450.05)"/><path d="M619.88,496.19h2.35l4.31,5.53h0v-5.53h2.35v9h-2.35l-4.31-5.54h0v5.54h-2.35Z" transform="translate(-361.4 -450.05)"/><path d="M643.07,500.18a5.81,5.81,0,0,1-.92,3.57,4.37,4.37,0,0,1-3.73,1.77,4.57,4.57,0,0,1-4.82-4.77,4.62,4.62,0,0,1,4.91-4.87,4.2,4.2,0,0,1,4.08,2.53l-2.23.94a2,2,0,0,0-2-1.44c-1.55,0-2.35,1.47-2.35,2.85a2.58,2.58,0,0,0,2.39,2.83,1.71,1.71,0,0,0,1.89-1.57H638.4v-1.85Z" transform="translate(-361.4 -450.05)"/><path d="M650.1,498.18v1.51h2.65v2H650.1v1.56h2.79v2h-5.14v-9h5.14v2Z" transform="translate(-361.4 -450.05)"/><path d="M365.42,502h0l1.89-5.84h1.87L371,502h0l1.7-5.84h2.45l-2.89,9h-2.4L368.29,500h0l-1.78,5.24H364.1l-2.7-9h2.45Z" transform="translate(-361.4 -450.05)"/><path d="M381.7,498.18v1.51h2.65v2H381.7v1.56h2.79v2h-5.15v-9h5.15v2Z" transform="translate(-361.4 -450.05)"/><path d="M391.9,503.24h2.82v2h-5.17v-9h2.35Z" transform="translate(-361.4 -450.05)"/><path d="M401.44,503.24h2.82v2h-5.17v-9h2.35Z" transform="translate(-361.4 -450.05)"/><path d="M408.63,496.19H411l4.31,5.53h0v-5.53h2.35v9h-2.35L411,499.69h0v5.54h-2.35Z" transform="translate(-361.4 -450.05)"/><path d="M425.15,498.18v1.51h2.65v2h-2.65v1.56h2.79v2H422.8v-9h5.15v2Z" transform="translate(-361.4 -450.05)"/><path d="M438,498.52a2.47,2.47,0,0,0-1.56-.6c-.43,0-1,.25-1,.75s.63.73,1,.86l.6.18c1.26.37,2.23,1,2.23,2.47a3.07,3.07,0,0,1-.94,2.43,4,4,0,0,1-2.57.85,5.58,5.58,0,0,1-3.18-1l1-1.9a3.22,3.22,0,0,0,2.09.94c.55,0,1.14-.28,1.14-.91s-.92-.89-1.43-1c-1.48-.42-2.45-.8-2.45-2.55a2.93,2.93,0,0,1,3.12-3,6.18,6.18,0,0,1,2.83.74Z" transform="translate(-361.4 -450.05)"/><path d="M449,498.52a2.47,2.47,0,0,0-1.56-.6c-.43,0-1,.25-1,.75s.63.73,1,.86l.6.18c1.26.37,2.23,1,2.23,2.47a3.07,3.07,0,0,1-.94,2.43,4,4,0,0,1-2.57.85,5.58,5.58,0,0,1-3.18-1l1-1.9a3.22,3.22,0,0,0,2.09.94c.55,0,1.14-.28,1.14-.91s-.92-.89-1.43-1c-1.48-.42-2.45-.8-2.45-2.55a2.93,2.93,0,0,1,3.12-3,6.18,6.18,0,0,1,2.83.74Z" transform="translate(-361.4 -450.05)"/><path d="M518.71,505.28a7.18,7.18,0,0,0,1.55-1.5c.9-1.19,3.35-4.8,3.72-5.29a33.77,33.77,0,0,0,2.13-3.17c.22-.37-.12-.82.16-1.19a1,1,0,0,1,.52-.3,7.28,7.28,0,0,1,2.78-.11,1.46,1.46,0,0,1,.62.16.78.78,0,0,1,.24,1,3.26,3.26,0,0,0-.33,1.48,6.76,6.76,0,0,1-.27,2.4c-.08.24-.14.5-.22.74a7.92,7.92,0,0,0-.29,1.7.86.86,0,0,0,.08.27,3.13,3.13,0,0,0,.64-.56,20.86,20.86,0,0,0,2.24-3.25c.48-.85,1-1.71,1.43-2.55a6.72,6.72,0,0,0,.51-1,.87.87,0,0,1,.83-.68.49.49,0,0,0,.24-.06,1.94,1.94,0,0,1,1.43-.12c.46.06.92.13,1.39.16a3.28,3.28,0,0,1,.38.07,2.12,2.12,0,0,0,.82.11,3.82,3.82,0,0,1,2.7,1.65,8.05,8.05,0,0,1,1,2.27,10.32,10.32,0,0,1,.44,3c0,.64,0,1.27,0,1.91a13.36,13.36,0,0,1-.1,1.46c-.09.72-.08,1.44-.13,2.16a8.85,8.85,0,0,1-.09,1.08,5.61,5.61,0,0,0-.05.89c-.08,2.32-.21,4.64-.32,7l0,.85c0,.57-.06,1.14-.1,1.71a18.1,18.1,0,0,1-.42,3.05,5.45,5.45,0,0,0-.05,3,5.29,5.29,0,0,1,.45,1.67,4.06,4.06,0,0,1-.9,2,15.47,15.47,0,0,0-1.1,2.17,3.22,3.22,0,0,1-1.23,1.55,8.2,8.2,0,0,1-1,.49,6.53,6.53,0,0,1-1.43.23,16.13,16.13,0,0,1-1.68.12,7.93,7.93,0,0,1-4.15-.87l-.82-.41a15.22,15.22,0,0,1-2.37-1.28,1.38,1.38,0,0,0-.36-.26,1.53,1.53,0,0,1-1-1.1,1.81,1.81,0,0,1-.08-1.42,5.57,5.57,0,0,1,.46-.8,2.87,2.87,0,0,0,.44-.7,16.49,16.49,0,0,1,1.25-2.06,11.32,11.32,0,0,0,.71-1.62c.47-1.23,1-2.44,1.5-3.65a23.13,23.13,0,0,0,1.43-3.43c.15-.6.39-1.2.56-1.8.11-.37.22-.74.32-1.12s.24-.92.36-1.38c.22-.9.43-1.8.61-2.7.29-1.4.55-2.83.74-4.24.06-.51.11-1,.16-1.52a.34.34,0,0,0,0-.11s-.1,0-.12,0c-.22.34-.55.58-.79.91a4.94,4.94,0,0,1-.82.8c-.37.32-.77.6-1.16.91a4.4,4.4,0,0,1-2.08.92,4.33,4.33,0,0,1-1.38.12,3.7,3.7,0,0,1-1.16-.51,7.14,7.14,0,0,1-1.2-.84,2.44,2.44,0,0,1-.71-2c0-.3.07-1,0-1s-.28.25-.38.38c-.67.85-2.47,4-2.9,4.63s-.85,1-1.34,1.61a4.71,4.71,0,0,1-.81.6,1.78,1.78,0,0,1-1,.4,1.51,1.51,0,0,1-.37,0,2.14,2.14,0,0,1-1-.37,3.37,3.37,0,0,0-.55-.32,3.25,3.25,0,0,1-1.13-1,8.57,8.57,0,0,1-.52-1l-1.27,1.8a3.75,3.75,0,0,1-.31.4c-.12.13-.26.24-.39.36a10.07,10.07,0,0,1-.86.76,2.61,2.61,0,0,1-1.12.37,1.47,1.47,0,0,1-1.13-.15c-.25-.15-.52-.29-.78-.44a1.73,1.73,0,0,1-.9-1,.86.86,0,0,0-.29-.41c-.27-.22-.22-.47-.26-.77s-.15-.51-.17-.79a7.58,7.58,0,0,1,.45-2.49,13.83,13.83,0,0,1,.91-2.56,6.91,6.91,0,0,1,.65-1,13.83,13.83,0,0,1,2.07-2l.6-.52a3.26,3.26,0,0,1,1-.68c.84-.28,1.15.52,1.92.5a1.74,1.74,0,0,1,.51.15c.08,0,.1-.29.11-.32a.36.36,0,0,1,.21-.32,1,1,0,0,1,.39-.06,9.39,9.39,0,0,1,2.61.36.76.76,0,0,1,.44.25.71.71,0,0,1,0,.6c-.06.2-.11.4-.17.61a3.56,3.56,0,0,0-.23,1.19c-.16.58-.18,1.18-.33,1.76a15,15,0,0,0-.23,1.51c0,.08,0,.17,0,.25-.09.5-.18,1-.26,1.51C518.65,504.5,518.6,505.25,518.71,505.28ZM511,506.7l.08,0a.89.89,0,0,0,.24-.08,4.29,4.29,0,0,0,1.27-1.15c.46-.64.93-1.27,1.39-1.91.24-.33.46-.66.71-1a.76.76,0,0,0,.19-.47,6.77,6.77,0,0,1,.28-1.44,4,4,0,0,0,.13-.63,3.4,3.4,0,0,1,.31-1.17c.12-.28.21-.56.31-.84,0-.06.08-.15,0-.23a1.8,1.8,0,0,0-.31.3,7.06,7.06,0,0,1-1.07,1.18,8.56,8.56,0,0,0-.83,1,12.63,12.63,0,0,0-1,1.71c-.17.32-.3.66-.45,1a9.54,9.54,0,0,0-.66,1.52,1.47,1.47,0,0,1-.13.36A3.72,3.72,0,0,0,511,506.7Z" transform="translate(-361.4 -450.05)"/><path d="M494.67,520.15h-.08a1,1,0,0,0-.42,0c-.08,0-.14.1-.22.14a1.06,1.06,0,0,1-.48.1c-.78,0-1.56,0-2.34,0a1,1,0,0,1-.63-.13,3.67,3.67,0,0,0-1-.65l-.16,0a1.62,1.62,0,0,1-.47-.24c-.13-.07-.29-.1-.43-.18-.44-.25-.87-.52-1.31-.79a.49.49,0,0,1-.15-.12,4.09,4.09,0,0,1-1-1.69l.12-.44.27-.19s0,0,0,0c.08-.36.37-.63.43-1a2,2,0,0,1,.32-.69c.5-.85,1.18-1.56,1.75-2.35.07-.1.2-.16.28-.26a1,1,0,0,0,.29-.41,1.64,1.64,0,0,1,.3-.48c.2-.27.43-.53.63-.8a4.3,4.3,0,0,0,.36-.59,2.36,2.36,0,0,0,.13-.43,1.34,1.34,0,0,0-.61-.23l-.58-.16a2.56,2.56,0,0,1-.61-1.23,12.74,12.74,0,0,1-.27-2.47c0-1,0-2,0-2.93s0-2.21.09-3.31a18,18,0,0,1,.19-2.35c0-.58.11-1.14.13-1.71,0-.36.11-.71.14-1.07.07-.72.17-1.44.3-2.15.09-.5.11-1,.15-1.48a.33.33,0,0,0-.36-.17c-.15,0-.29.06-.44.08a4.42,4.42,0,0,1-1.14,0,7.54,7.54,0,0,0-1.14-.12.43.43,0,0,1-.41-.15.59.59,0,0,1,.12-.14l1.44-.85a10.12,10.12,0,0,1,2-.79,15.55,15.55,0,0,1,3.19-.66,17.77,17.77,0,0,1,2.1-.11,7.58,7.58,0,0,1,1.84.17c.35.09.75.09,1.1.19a10.07,10.07,0,0,1,1.25.39,2.75,2.75,0,0,0,.47.19,10.29,10.29,0,0,1,1.61.61c.31.13.61.3.91.45a10.31,10.31,0,0,1,1.78,1.12,6.89,6.89,0,0,1,.91.89c.37.41.75.82,1.08,1.26a7.53,7.53,0,0,1,1.33,2.25,9.06,9.06,0,0,1,.32,1.43,5.9,5.9,0,0,1,.12,1,5.43,5.43,0,0,0,0,.86,13.4,13.4,0,0,1-.16,2.05,9.62,9.62,0,0,1-.57,2.38,1.89,1.89,0,0,1-.32.62,1.39,1.39,0,0,0-.27.64,7.78,7.78,0,0,1-.53,1.45,11.81,11.81,0,0,1-.57,1.3l-.11.19-.07.13a3.43,3.43,0,0,0-.44.93,1.71,1.71,0,0,1-.39.8c-.21.27-.44.52-.62.81s-.2.6-.39.89a4.16,4.16,0,0,0-.22.63c-.05.1-.42.58-.59.85s-1.93,3.09-2.23,3.55-.68.75-1,1.1a2.21,2.21,0,0,0-.42.81c-.41.3-.67.81-1.19,1a1.52,1.52,0,0,1-.4.64c-.2.22-.37.47-.56.69a1.88,1.88,0,0,1-.43.38,2.59,2.59,0,0,1-1,.33A8.27,8.27,0,0,1,494.67,520.15Zm-3.07-30.76.3.14a3.27,3.27,0,0,1,1.52,1.1,1.45,1.45,0,0,1,.24.52,34.2,34.2,0,0,1,.65,4,5.42,5.42,0,0,1,0,1,14.65,14.65,0,0,0,0,1.9,6.77,6.77,0,0,1,0,1,10.77,10.77,0,0,0,0,1.4,6.08,6.08,0,0,1,0,.76,14.5,14.5,0,0,0-.09,1.78,3,3,0,0,1,0,.44c0,.38-.1.76-.16,1.19.11-.08.2-.11.24-.18s.23-.41.36-.6a6.75,6.75,0,0,0,.83-1.57,1.26,1.26,0,0,1,.13-.22,3.54,3.54,0,0,0,.58-1.43.86.86,0,0,1,.11-.3,13.27,13.27,0,0,0,.6-1.34,5,5,0,0,0,.26-.79c.1-.28.24-.55.33-.83s.25-.77.36-1.17a17.41,17.41,0,0,0,.75-3.17,3.15,3.15,0,0,0,.13-1.07,3.34,3.34,0,0,0-.5-2.08,1.52,1.52,0,0,0-.79-.62,3.44,3.44,0,0,0-1.19-.24,8.12,8.12,0,0,1-1.08-.11h-.25c-.49,0-1,0-1.46.05A5.54,5.54,0,0,0,491.6,489.39Z" transform="translate(-361.4 -450.05)"/><path d="M524.71,453.86c-.15,0-.27.08-.39.13l-.4.2c-.81.4-1.67.67-2.5,1a1.21,1.21,0,0,1-.23,0,.5.5,0,0,1-.06-.13,23,23,0,0,0-.31-2.47,10.12,10.12,0,0,0-.25-1,1.57,1.57,0,0,0-.36-.67c-.12-.12-.22-.26-.31-.38a1.35,1.35,0,0,0-.32-.12,3.23,3.23,0,0,1-1.1-.32.51.51,0,0,0-.25-.07c-.43,0-.85-.06-1.27,0a.74.74,0,0,0-.43.09c-.22.2-.52.19-.73.31a.4.4,0,0,0-.07.44,2,2,0,0,1,0,.75c0,.34-.15.66-.17,1a3.48,3.48,0,0,1-.11.63c-.1.41-.22.82-.31,1.24s-.09.72-.19,1.06a4.71,4.71,0,0,1-.35,1.33c-.15.05-.32.14-.51.19a19.1,19.1,0,0,1-2.31.51,14.17,14.17,0,0,1-2.67.16c-.59,0-1.18-.06-1.77,0a6.91,6.91,0,0,0-.88.09c-.16,0-.62,0-.69.17a.5.5,0,0,0,0,.3,1.34,1.34,0,0,0,.2.56,1.55,1.55,0,0,0,.83.43c.29.1.51.33.79.45a3.36,3.36,0,0,0,.44.11c.27.07.51.27.79.33a2.47,2.47,0,0,1,.38.08c.38.16.78.29,1.19.42a3.36,3.36,0,0,0,.74.19,7.38,7.38,0,0,1,1.05.24l.83.21a1.74,1.74,0,0,1-.06.27l-1.14,2.87a1.14,1.14,0,0,1-.17.34,2.09,2.09,0,0,0-.3.56l-1,2.09a.48.48,0,0,1-.06.11,8.66,8.66,0,0,0-.69,1.22c-.4.65-.78,1.32-1.2,1.95a3.88,3.88,0,0,1-.37.43s-.08,0-.13,0c0-.23.05-.46.06-.68s0-.47,0-.7a1.14,1.14,0,0,1,0-.32c.09-.3-.1-.59,0-.88-.12-.48-.21-1-.35-1.43a13.42,13.42,0,0,0-.75-2,9.16,9.16,0,0,0-1.18-2c-.13-.15-.3-.31-.5-.26a.68.68,0,0,0-.23.13,4.23,4.23,0,0,1-2,.54,3.65,3.65,0,0,0-1.56.44c-.36.23-.86.61-.81,1.08,0,.32,0,.63.05,1a.92.92,0,0,0,0,.12,5.74,5.74,0,0,1-.5,1c-.23.46-.45.92-.71,1.36-.38.64-.77,1.27-1.14,1.92-.18.31-.39.61-.57.92-.34.57-.74,1.09-1.11,1.63s-.81,1.19-1.21,1.8c-.27.41-.55.81-.78,1.24s-.66,1-1,1.5-.56.75-.81,1.15a8.59,8.59,0,0,1-1,1.36,4.19,4.19,0,0,1-.75.59.69.69,0,0,1-.47.16,3,3,0,0,1-.09-3c.65-.62,1.28-1.22,1.88-1.86a17.69,17.69,0,0,0,2.24-3.09,5.41,5.41,0,0,0,.33-.54,15.63,15.63,0,0,0,.81-1.67.64.64,0,0,1,.11-.23,3.18,3.18,0,0,0,.49-1c.29-.71.57-1.43.85-2.15.11-.28.21-.56.31-.85a.77.77,0,0,0,.07-.31c-.06-.53.07-1-.23-1.46a2.06,2.06,0,0,0-1-.85,3.07,3.07,0,0,0-1.72-.05,3.68,3.68,0,0,0-1.46.49c-.23.18-.49.32-.72.5s-.39.44-.56.69c-.36.53-.77,1-1.1,1.56a7,7,0,0,0-.66,1.17,1.29,1.29,0,0,1-.16.35,5.48,5.48,0,0,0-.63,1.33c-.19.46-.37.91-.53,1.38s-.29,1-.43,1.47a.37.37,0,0,0,0,.12,2.07,2.07,0,0,1-.15.69,5.24,5.24,0,0,0-.13.69c0,.42-.2.83-.22,1.25a8.78,8.78,0,0,1-.13,1,3,3,0,0,1-.19.5c-.17,0-.35.11-.54.15a2.12,2.12,0,0,1-1.49-.21s-.33-.17-.37-.2a1.36,1.36,0,0,0-.32-.15c-.08,0-.17,0-.23,0a.2.2,0,0,0,0,.12,1.51,1.51,0,0,0,.19.92,1.69,1.69,0,0,0,.64.52,2.37,2.37,0,0,1,.34.18,2.77,2.77,0,0,0,1.24.48,1.56,1.56,0,0,1,.57.19l.14.46a5.25,5.25,0,0,0,.54,1.36,2.65,2.65,0,0,0,1.33,1.14l1.08.41a2.69,2.69,0,0,0,2.29-.17,9.53,9.53,0,0,0,2.17-1.57c.61-.56,1.21-1.14,1.81-1.72.35-.34.69-.7,1-1.06a31.9,31.9,0,0,0,2.18-2.65c.2-.27.39-.55.62-.81a11.49,11.49,0,0,0,1.42-1.88.21.21,0,0,1,.25-.11,6.42,6.42,0,0,1-.12.69,10.22,10.22,0,0,1-.95,2.1.48.48,0,0,1-.08.1c-.25.26-.5.52-.76.78s-.38.35-.57.51a.71.71,0,0,0-.26.57,1.6,1.6,0,0,0,.44,1.33,4.42,4.42,0,0,1,1.12.64c.28.18.53.4.8.59a.81.81,0,0,0,.34.13,2,2,0,0,0,1.39-.15c.63-.4,1.33-.6,1.93-1.06a1.28,1.28,0,0,0,.4-.41,6.41,6.41,0,0,0,.61-1.12,1.22,1.22,0,0,1,.48-.67c.47-.34.81-.81,1.25-1.19a6.14,6.14,0,0,0,.51-.47c.54-.58,1.12-1.11,1.69-1.65.25-.23.52-.45.75-.69a8.89,8.89,0,0,0,1.35-1.6.19.19,0,0,1,.26-.1c0,.47,0,.93-.08,1.4-.06.78-.14,1.56-.2,2.35s-.07,1.32-.14,2c-.18,1.75-.3,3.51-.47,5.27-.09,1-.16,1.94-.25,2.92s-.07,2.08-.11,3.12a3.82,3.82,0,0,0,0,.57,17.69,17.69,0,0,1,.07,2.87,5.43,5.43,0,0,0,0,.7.75.75,0,0,0,.23.51,2.3,2.3,0,0,0,.53.45c.4.18.82.33,1.23.48a2,2,0,0,0,.49.1,3.46,3.46,0,0,1,.67.25,1.77,1.77,0,0,0,.65.15.89.89,0,0,1,.29,0c.11,0,.2.14.32.16s.3-.08.44,0a.82.82,0,0,1,.13.1c.23.16.54,0,.81,0s.83.09,1.25,0c.16,0,.31-.08.46-.12.6-.16,1.82.12,1.89-.8a1.49,1.49,0,0,0-.09-.54l-.67-2.21a12.55,12.55,0,0,1-.14-3A15.54,15.54,0,0,0,520,485c-.16-.75,0-1.53-.09-2.28a17.9,17.9,0,0,1-.08-2.9c.06-1.55.29-3.09.44-4.63a7.93,7.93,0,0,0,.06-1.46,3.88,3.88,0,0,1,.07-.63c.07-.83,0-1.66,0-2.51,0-.59,0-1.2.06-1.78a7.22,7.22,0,0,1,.34-2,1.05,1.05,0,0,0,0-.25c.07-.48.06-1,.11-1.46a7.81,7.81,0,0,0,0-1.46,1.38,1.38,0,0,1,0-.38,10.49,10.49,0,0,0,.12-1.91c0-.85,0-1.7.13-2.54a1.93,1.93,0,0,1,.25-1c.44-.27.88-.55,1.32-.8a5.09,5.09,0,0,0,1.44-1.34c.27-.34.41-.74.65-1.09a1.14,1.14,0,0,0,.1-.3ZM492,472.15a25.94,25.94,0,0,1,1.4-3.72c.25-.61.94-1.06,1.5-1.53a17.16,17.16,0,0,1-1.11,3.3c-.2.29-.66,1.34-.86,1.61-.31.44-.81,1.22-1.21,1.69C491.58,473.35,492,472.24,492,472.15Z" transform="translate(-361.4 -450.05)"/><path d="M523,522.45a8.13,8.13,0,0,0-1.35-1,.52.52,0,0,0-.24-.1,2,2,0,0,1-.66-.23,2.15,2.15,0,0,0-.49-.13c-.65-.1-1.3-.2-1.94-.35a8.27,8.27,0,0,0-1.64-.19l-1.5,0c-.3-.15-.58-.27-.84-.41a3.31,3.31,0,0,0-1.53-.42c-.74,0-1.49,0-2.23-.1a1.52,1.52,0,0,0-1.17.41,1,1,0,0,0-.36,1.2,2.17,2.17,0,0,0,.18.48.82.82,0,0,1,.06.68,7.62,7.62,0,0,1-.39,1.41c0,.31-.22.56-.26.85a3.86,3.86,0,0,1-.3.84.93.93,0,0,0-.09.24,3,3,0,0,1-.29.84,1,1,0,0,0-.1.24,3.12,3.12,0,0,1-.38,1c-.18.34-.24.73-.41,1.07-.37.78-.72,1.56-1.12,2.32a16,16,0,0,1-.94,1.6c-.3.44-.62.86-.92,1.3s-.48.65-.74,1-.49.58-.75.87c0,.05-.14.07-.21.1s0-.06,0-.08a9.75,9.75,0,0,1,0-2c.08-.83.18-1.65.27-2.48a9.77,9.77,0,0,1,.3-1.89.22.22,0,0,1,0-.09.27.27,0,0,1,.1-.05,1.43,1.43,0,0,0,.21-.11l.57-.35a6.56,6.56,0,0,0,1.55-1.14,3.94,3.94,0,0,0,.69-.92,1.51,1.51,0,0,1,.2-.33,2.67,2.67,0,0,0,.57-1.19c.09-.47.29-.91.4-1.37a4.22,4.22,0,0,0,0-1.56c-.15-1.12-.4-2.13-1.51-2.64a3.64,3.64,0,0,0-2.28-.26,6.55,6.55,0,0,0-1.78.81,2.56,2.56,0,0,0-.49.25,2.61,2.61,0,0,0-.38.69,21.67,21.67,0,0,0-1.12,2.59,7.13,7.13,0,0,1-.32,1c-.14.67-.26,1.37-.46,2a2.08,2.08,0,0,1-.72-.55,3.56,3.56,0,0,0-1.5-.77,7.34,7.34,0,0,0-2.35-.05c-1,.12-.88.2-1.38.77a1.14,1.14,0,0,0-.26.57,3.81,3.81,0,0,1-.22.86c-.27.62-.57,1.24-.8,1.89s-.55,1.2-.75,1.83-.44,1.06-.64,1.6c-.28.78-.71,1.51-1,2.3a9.43,9.43,0,0,1-1,1.72l-.06,0a.54.54,0,0,1-.07-.17c0-.53,0-1.07,0-1.6q.09-1.37.18-2.73c0-.62.12-1.23.1-1.85a.32.32,0,0,1,0-.13,2.11,2.11,0,0,0,.07-.82c0-.4-.05-.8,0-1.21a10.48,10.48,0,0,0-.07-1.4c0-.49-.16-1-.2-1.46a2.74,2.74,0,0,0-.32-1,1.52,1.52,0,0,0-1.05-.87c-.42-.11-.82-.32-1.24-.42a3.53,3.53,0,0,1-1.1-.43.67.67,0,0,0-.9.3,14.79,14.79,0,0,1-1,1.21,24.07,24.07,0,0,0-2.13,2.62,89.18,89.18,0,0,1-9.33,12.1,7.65,7.65,0,0,1-1.72,1.61,3.31,3.31,0,0,1-1.93.56,1.31,1.31,0,0,1-.73-.4c-.09-.1-.16-.21-.26-.3-.33-.3-.61-.44-.72-.9a3.55,3.55,0,0,1,0-1.47,3.15,3.15,0,0,1,.24-1,17.22,17.22,0,0,1,1-2.77q.2-.51.44-1c.11-.24.26-.47.37-.71a4.89,4.89,0,0,1,.31-.68,12.77,12.77,0,0,1,.65-1.14.84.84,0,0,0,.12-.26,3.42,3.42,0,0,1,.65-1.22,1.18,1.18,0,0,0,.13-.18,6.39,6.39,0,0,1,.87-1.32c.83-1,1.39-2.26,2.19-3.32s1.73-2.2,2.67-3.24c.74-.82,1.51-1.61,2.31-2.36.5-.47,1.39-1,1.47-1.74a1.19,1.19,0,0,0-.14-.72.41.41,0,0,0-.11-.12,8.5,8.5,0,0,1-.92-.84,9.9,9.9,0,0,0-1.59-1.36,1,1,0,0,0-.61-.18,12.21,12.21,0,0,1-1.64-.06,2.56,2.56,0,0,0-.46-.07c-.41,0-.77.16-1.18.14a2.29,2.29,0,0,0-1.09.2A9.44,9.44,0,0,1,467,515c-.37,0-.81-.17-.93-.52a.92.92,0,0,1,.06-.6c.77-2.1,3.37-2.79,4.95-3.57.86-.43,1.77-.7,2.65-1.08a6.74,6.74,0,0,1,2.8-.3,28.66,28.66,0,0,0,3.23-.21.55.55,0,0,0,.64-.61,1.49,1.49,0,0,0-.08-.71,1.44,1.44,0,0,0-.49-.51,19.58,19.58,0,0,0-3.42-2c-1.15-.53-2.15,0-3.23.49a37.26,37.26,0,0,0-3.92,2.16,21.34,21.34,0,0,0-3.78,2.95,5.14,5.14,0,0,0-1,1.26,3.12,3.12,0,0,1-.25.37,5.38,5.38,0,0,0-.77,1.54,1.38,1.38,0,0,0,0,.7,2.28,2.28,0,0,0,.93,1.48l.37.25a2.94,2.94,0,0,1,.41.29,4.19,4.19,0,0,0,1.54.79,6.74,6.74,0,0,0,1.82.35,3.43,3.43,0,0,0-.44.55c-.13.21-.21.45-.35.65l-.11.12a1.28,1.28,0,0,0-.11.18,19.33,19.33,0,0,1-1.86,2.27,2,2,0,0,1-.55.55,4,4,0,0,1-.3.54c-.19.24-.33.51-.52.74a7.76,7.76,0,0,0-1.06,1.31,3.25,3.25,0,0,1-.47.69,2.58,2.58,0,0,0-.3.37c-.21.34-.28.76-.47,1.12a8.06,8.06,0,0,0-.62,1.26,1.34,1.34,0,0,1-.3.55,1.8,1.8,0,0,0-.33.52,6,6,0,0,0-.59,1.65,3.86,3.86,0,0,1-.21.71,8.1,8.1,0,0,0-.14,1c-.07.39-.2.79-.3,1.17a4.44,4.44,0,0,0-.07,1.1,9,9,0,0,0,.09,1.32,7,7,0,0,0,.8,2.18c.22.43.47.85.72,1.26a6,6,0,0,0,.63.91,10.45,10.45,0,0,0,1.26,1.25,5.22,5.22,0,0,0,.93.46l1,.47a9.7,9.7,0,0,0,6.37,1,7.58,7.58,0,0,0,1.16-.14,10.34,10.34,0,0,0,1.51-.54,5.82,5.82,0,0,0,1.36-.46l2.24-1.7a5.81,5.81,0,0,0,.49-.4c.22-.21.41-.45.62-.67.4-.41,1-.66,1.34-1.14a14,14,0,0,1,1.25-1.56,9,9,0,0,0,2-3.33,11.31,11.31,0,0,1,.75-1.49c0,.11,0-.37,0,.48s-.12,1.44-.15,2.16,0,1.32,0,2a12.5,12.5,0,0,0,.09,2,4.68,4.68,0,0,0,.62,1.94,1.89,1.89,0,0,0,.8.81l.69.34c.12.06.27.09.34.18a1.13,1.13,0,0,0,.8.34,3.36,3.36,0,0,0,.44.08,4.25,4.25,0,0,0,1.08,0,2.61,2.61,0,0,0,1.75-1.19,3.31,3.31,0,0,0,.38-.72,1.22,1.22,0,0,1,.32-.55.88.88,0,0,0,.18-.26l1-2a1.61,1.61,0,0,0,.13-.36,6.38,6.38,0,0,1,.49-1.51,2.05,2.05,0,0,0,.21-.6,4.67,4.67,0,0,1,.26-.92,7.23,7.23,0,0,0,.28-1,1.64,1.64,0,0,1,.1-.37c.2-.4.21-.87.44-1.26a1.94,1.94,0,0,1,.25-.79.76.76,0,0,0,.07-.18,4.79,4.79,0,0,1,.5-1.24c.19-.43.5-.79.72-1.2a1.23,1.23,0,0,1,.17-.2,21.16,21.16,0,0,0,2.76,1.29c0,.17,0,.33,0,.5,0,.7,0,1.41-.07,2.11a12.5,12.5,0,0,0,.17,2.8,5.65,5.65,0,0,0,.2.87,4.17,4.17,0,0,0,.83,1.57,3.41,3.41,0,0,0,1.12.94,1.42,1.42,0,0,1,.32.21,1.54,1.54,0,0,0,.87.36,4.17,4.17,0,0,0,4.07-1.75c.36-.52.7-1.06,1.09-1.57s.64-.85,1-1.26a8.22,8.22,0,0,1,1.1-1.31.18.18,0,0,0,0-.05c.24-.43.58-.79.78-1.24s.51-1.09.77-1.63a4,4,0,0,0,.32-1.1q.06-.37.14-.75a3.49,3.49,0,0,0,.23-1.25c0-.06,0-.12.05-.18a13.3,13.3,0,0,1,.44-1.53,4.79,4.79,0,0,0,.15-.55c0-.16.05-.37.16-.48s.12-.36.2-.52a5.11,5.11,0,0,0,.24-.53,1.46,1.46,0,0,1,.62-.77c.32.1.62.18.93.29l1.26.45.19,0,1.19.23a.74.74,0,0,1,.18.1,3,3,0,0,1-.08.56c-.17.5-.33,1-.46,1.53-.07.29-.17.57-.26.85-.17.5-.34,1-.48,1.52a8,8,0,0,1-.4,1.15c-.24.53-.33,1.11-.6,1.62a.47.47,0,0,0,0,.12,6.33,6.33,0,0,1-.49,1.51,1.15,1.15,0,0,0-.12.3c-.11.61-.34,1.18-.5,1.78s-.42,1.43-.6,2.15c-.07.29-.17.57-.25.86q-.2.74-.38,1.48c-.2.82-.37,1.66-.55,2.49a14.34,14.34,0,0,0-.46,3.08c0,.36-.16.71,0,1.07-.16.31,0,.63,0,.94s.06.42.09.63a5.75,5.75,0,0,0,.47,1.59,1.85,1.85,0,0,0,.5.73,2.92,2.92,0,0,1,.34.39l.42.15a3.31,3.31,0,0,1,1.36.68,2.22,2.22,0,0,0,.5.28.48.48,0,0,1,.42.06,1,1,0,0,0,.38.18l.19,0,.1,0a2.2,2.2,0,0,1,.36.24.7.7,0,0,0,.41.13,4.42,4.42,0,0,1,.62.11,1.64,1.64,0,0,0,.55.07,1.15,1.15,0,0,1,.41-.05,1,1,0,0,1,.23.13,1.52,1.52,0,0,0,.88,0,.77.77,0,0,1,.38,0c.06,0,.34.13.37.05s.05-.08.05-.11a3.49,3.49,0,0,0,0-1.14,1.39,1.39,0,0,0-.07-.94,1.74,1.74,0,0,1-.05-.31,10.37,10.37,0,0,1-.12-1.38,4.05,4.05,0,0,0-.12-1.39,2.24,2.24,0,0,1-.12-.32,8.05,8.05,0,0,1,0-.85,6.36,6.36,0,0,1,0-.92,17.72,17.72,0,0,0,0-2,2.87,2.87,0,0,1,.18-1,2.88,2.88,0,0,0,0-.64,7.88,7.88,0,0,1,.11-.82,2.92,2.92,0,0,1,.16-.73,1.92,1.92,0,0,0,.12-.3,3.12,3.12,0,0,0,0-.43,3.07,3.07,0,0,1,.15-.57,14.42,14.42,0,0,0,.12-1.44l0-.08c0-.16.07-.32.1-.49s.2-.41.23-.59a3.9,3.9,0,0,0,.19-1.19,1.52,1.52,0,0,1,0-.63,5.88,5.88,0,0,1,.35-1.1.85.85,0,0,0,.09-.3c.08-.76.42-1.47.47-2.24a.22.22,0,0,1,0-.06,16.23,16.23,0,0,0,.57-2.08,18.43,18.43,0,0,0,.47-2.37,14.9,14.9,0,0,0,.08-1.9A1.45,1.45,0,0,0,523,522.45Zm-18.19.08c0-.06.22-.38.28-.36.32.12.29,1.5.21,1.85a4.43,4.43,0,0,1-1.36,2.62s-.48.22-.47.15a14.07,14.07,0,0,1,.66-2.66A7.22,7.22,0,0,1,504.81,522.53Z" transform="translate(-361.4 -450.05)"/><path d="M486.65,467.19a6.49,6.49,0,0,0-.24-1.45,5,5,0,0,0-1.3-2.25,7.53,7.53,0,0,0-5.44-1.89c.24-.28.47-.57.69-.85a10.88,10.88,0,0,0,1.72-2.9,3.44,3.44,0,0,0,.25-1.32,2.83,2.83,0,0,0-1.05-2,5.28,5.28,0,0,0-2.07-1l-.49-.12a18.53,18.53,0,0,0-7.08.26,38.32,38.32,0,0,0-7,1.87c-.6.23-1.19.5-1.77.78s-1.28.47-1.53.94l-.19.34a.07.07,0,0,0,0,.06.07.07,0,0,0,0,0,3.1,3.1,0,0,0,1.37-.09c.63-.09,1.26-.22,1.89-.3,1-.12,2-.35,3.06-.56l.83-.17a6.44,6.44,0,0,0-.32.88,2.78,2.78,0,0,1-.21.67,3.06,3.06,0,0,0-.27.72q-.66,2.28-1.32,4.57c-.21.74-.4,1.49-.6,2.24s-.27,1.56-.5,2.31a6.5,6.5,0,0,1-.27,1.44.47.47,0,0,0,0,.19,1.79,1.79,0,0,1-.08.63c-.06.4-.6,5.5-.64,5.91s-.06.76-.11,1.14a4.79,4.79,0,0,0,.11,2c.1.35.22.69.32,1l.25.11a15.85,15.85,0,0,1,1.49.57,2.09,2.09,0,0,0,1.47.31,1.28,1.28,0,0,1,.3-.09c.09,0,.17,0,.26,0a.7.7,0,0,0,.2-.06,2.6,2.6,0,0,0,1.75-1.47,3.17,3.17,0,0,0,.21-1.13,1,1,0,0,1,.05-.31c.08-.29.16-.58.24-.87l.09-.31c0-.1.06-.21.07-.31s0-.25,0-.38.1-.19.1-.29a23.26,23.26,0,0,1,.51-3.85,16.81,16.81,0,0,0,.36-2.69c.06-.8.14-1.6.22-2.4a11.35,11.35,0,0,1,5.73-1.41.74.74,0,0,1,.35.09c1,.62-.88,4-1.19,4.74a44.6,44.6,0,0,1-4.9,8.92,81.22,81.22,0,0,1-7.3,8.67c-.37.39-.82.68-1.21,1a2.59,2.59,0,0,0-.76.93,5.21,5.21,0,0,1-.56,1c-.1.14-.07.31-.11.46s-.18.43-.25.65a3.85,3.85,0,0,0-.17,1.47,1.26,1.26,0,0,0,0,.23,1.53,1.53,0,0,0,.78.79c.39.23.74.49,1.11.75s.82.39,1.21.61c.17.1.4,0,.52.19,0,0,.08,0,.12,0,.42,0,.69.18,1.07.27a6.26,6.26,0,0,0,1.44,0,3.52,3.52,0,0,0,.79-.07,2.85,2.85,0,0,1,.56-.13,3.25,3.25,0,0,0,.52,0,1,1,0,0,0,.3-.13c.37-.22.76-.44,1.11-.68a1.49,1.49,0,0,0,.24-.21c.86-.94,1.86-1.77,2.78-2.64a8,8,0,0,0,1.15-1.25,6.62,6.62,0,0,1,.64-.91,7.69,7.69,0,0,1,.85-.65,6,6,0,0,0,1.28-1.52,43.42,43.42,0,0,0,2.71-5.45c.9-1.91,1.89-3.78,2.81-5.68a35.84,35.84,0,0,0,1.92-4.93A14.51,14.51,0,0,0,486.65,467.19ZM474.85,455a7,7,0,0,1,3.19.08,1.22,1.22,0,0,1,.53.26.92.92,0,0,1,.19.87c-.33,1.32-1.72,2.6-2.7,3.41a12.13,12.13,0,0,1-3.15,1.8q.26-1.38.58-2.76a3.82,3.82,0,0,0,.15-2,.93.93,0,0,0-.66-.6l-1-.4a11.44,11.44,0,0,1,1.12-.31C473.67,455.29,474.25,455.09,474.85,455Z" transform="translate(-361.4 -450.05)"/></svg>